<?xml version="1.0" standalone="no"?>
<!DOCTYPE svg PUBLIC "-//W3C//DTD SVG 20010904//EN"
 "http://www.w3.org/TR/2001/REC-SVG-20010904/DTD/svg10.dtd">
<svg version="1.0" xmlns="http://www.w3.org/2000/svg"
 width="2000.000000pt" height="1600.000000pt" viewBox="0 0 2000.000000 1600.000000"
 preserveAspectRatio="xMidYMid meet">
<metadata>
Created by potrace 1.16, written by Peter Selinger 2001-2019
</metadata>
<g transform="translate(0.000000,1600.000000) scale(0.100000,-0.100000)"
fill="#000000" stroke="none">
<path d="M15403 12302 c-10 -6 -13 -102 -15 -403 l-3 -394 -896 -5 c-869 -5
-898 -6 -918 -24 -30 -27 -58 -75 -66 -113 l-7 -33 1926 0 1926 0 0 28 c0 34
-34 98 -50 94 -6 -1 -9 2 -6 7 4 5 -4 17 -16 25 -20 14 -119 16 -900 16 l-878
0 0 405 0 405 -42 0 c-24 0 -49 -4 -55 -8z"/>
<path d="M10610 11735 l0 -235 -894 0 -894 0 -30 -25 c-34 -29 -62 -82 -62
-119 l0 -26 1473 0 c1047 0 1476 3 1484 11 8 8 13 8 17 0 4 -6 37 -11 74 -11
55 0 71 4 84 19 16 19 16 21 -2 44 -21 26 -29 75 -16 95 6 9 -116 12 -558 12
l-566 0 0 225 c0 172 -3 227 -12 229 -7 3 -32 7 -55 10 l-43 6 0 -235z"/>
<path d="M11917 11480 c-21 -25 -21 -34 -1 -51 14 -11 19 -10 38 12 20 23 23
24 39 8 17 -16 14 -49 -4 -49 -5 0 -9 -9 -9 -20 0 -11 5 -20 10 -20 6 0 10 -7
10 -15 0 -12 14 -15 69 -15 l69 0 -69 69 c-70 70 -79 85 -56 94 6 3 -8 6 -33
6 -34 1 -50 -4 -63 -19z"/>
<path d="M12090 11494 c0 -15 25 -48 66 -87 42 -41 44 -45 29 -61 -15 -15 -2
-16 188 -16 l205 0 -9 42 c-11 45 -39 90 -72 113 -32 22 -156 21 -173 -2 -9
-14 -27 -18 -69 -18 -42 0 -60 4 -69 18 -9 11 -27 17 -55 17 -22 0 -41 -3 -41
-6z"/>
<path d="M6025 10292 c-40 -6 -67 -27 -88 -67 -20 -35 -22 -56 -22 -180 0
-130 2 -143 24 -183 31 -53 66 -78 86 -62 23 19 27 47 10 85 -36 88 -5 144 47
86 33 -37 38 -38 38 -8 0 12 9 42 20 66 l20 44 78 -6 c94 -7 168 11 218 55 57
50 67 142 17 163 -18 8 -409 14 -448 7z"/>
<path d="M16081 10029 c-24 -4 -62 -18 -86 -29 -59 -29 -200 -155 -220 -197
-16 -32 -16 -38 -1 -77 9 -23 33 -59 55 -80 l38 -37 6 70 c6 73 27 128 53 138
10 4 36 -14 72 -49 67 -64 119 -104 183 -142 38 -22 57 -26 105 -24 55 3 59 2
68 -24 13 -37 -13 -91 -51 -110 -38 -18 -42 -62 -11 -108 50 -73 120 -76 193
-9 24 23 51 60 61 84 21 57 7 103 -51 160 -39 40 -42 47 -48 111 -14 171 -99
281 -244 319 -63 16 -60 16 -122 4z"/>
<path d="M3556 9995 c-108 -38 -143 -98 -213 -364 -60 -231 -89 -299 -147
-353 -171 -157 -211 -199 -266 -277 -179 -250 -212 -459 -93 -578 129 -130
458 -100 534 49 16 31 24 71 29 148 10 132 20 168 81 303 76 166 84 207 70
359 -7 69 -9 148 -5 175 22 150 100 243 234 278 28 7 67 23 87 35 19 11 37 19
39 18 1 -2 12 -51 24 -108 27 -128 23 -234 -10 -333 -37 -108 -87 -136 -193
-106 -22 6 -41 8 -44 5 -3 -3 -2 -39 2 -80 l7 -76 68 -36 c87 -45 152 -114
215 -226 27 -49 54 -88 61 -88 16 0 76 75 103 129 40 77 38 130 -8 262 -57
167 -59 194 -22 307 46 137 43 160 -26 251 -20 25 -56 88 -82 140 -55 113 -80
133 -206 161 -105 23 -184 25 -239 5z"/>
<path d="M10695 9725 c-33 -13 -80 -29 -104 -35 -57 -15 -107 -64 -116 -113
-4 -22 -1 -77 9 -133 24 -143 23 -158 -20 -190 -34 -26 -35 -30 -29 -70 5 -38
3 -46 -20 -66 -52 -44 -57 -68 -34 -145 31 -105 38 -120 65 -132 36 -16 41
-15 98 22 28 19 69 41 91 49 46 17 85 68 85 108 0 45 -38 141 -75 188 -19 25
-35 55 -35 68 0 28 28 57 47 49 12 -4 14 0 9 17 -4 13 -12 47 -18 75 -11 48
-10 55 8 80 12 16 32 34 46 42 24 14 29 12 75 -17 34 -22 81 -39 144 -53 103
-22 116 -29 136 -76 24 -58 13 -265 -16 -312 -5 -7 -32 -17 -61 -22 -29 -4
-55 -11 -58 -14 -3 -3 2 -20 10 -39 14 -29 29 -38 100 -65 45 -18 97 -43 115
-57 17 -13 34 -24 38 -24 12 0 45 85 45 116 0 17 -10 45 -22 63 -13 17 -36 49
-52 71 -39 55 -45 97 -34 260 8 117 7 148 -6 194 -23 80 -91 133 -215 170 -75
22 -135 19 -206 -9z"/>
<path d="M5965 9478 c-7 -18 -23 -67 -35 -108 -13 -41 -28 -82 -34 -90 -16
-20 -44 -84 -68 -150 -39 -112 -142 -535 -173 -715 -18 -102 -30 -448 -20
-588 9 -131 18 -147 93 -155 42 -4 57 -10 77 -34 35 -41 39 -68 21 -132 -20
-69 -49 -93 -83 -70 -29 18 -26 28 -53 -166 -25 -177 -100 -593 -124 -690 -21
-82 -35 -118 -58 -152 -44 -64 -184 -447 -269 -735 l-21 -73 -403 0 -403 0 -5
53 c-3 28 -18 231 -34 450 l-27 397 -214 0 c-198 0 -213 -1 -208 -17 99 -335
141 -508 188 -768 41 -230 43 -250 46 -477 l3 -237 41 -3 40 -3 22 -87 c12
-48 25 -91 30 -95 4 -4 44 -10 88 -12 l81 -3 -6 101 -5 101 298 0 299 0 32 45
c18 25 34 45 36 45 1 0 39 -20 84 -45 l81 -45 149 0 149 0 0 24 c0 31 36 75
75 92 39 16 93 4 120 -26 18 -20 18 -21 -15 -55 -31 -32 -32 -35 -13 -35 12 0
25 5 28 10 8 13 55 13 55 0 0 -5 14 -10 32 -10 32 0 32 0 -52 85 -47 46 -85
89 -84 95 2 25 5 29 24 35 44 14 4 25 -93 26 -56 1 -127 4 -158 8 l-57 6 73
135 73 135 159 3 c136 2 160 5 171 20 12 16 14 16 43 -1 17 -9 50 -17 74 -17
35 0 44 4 50 23 4 12 7 26 6 30 -4 22 18 -7 23 -31 5 -23 36 -303 36 -324 0
-5 -34 -8 -75 -8 l-75 0 0 -40 c0 -41 -20 -72 -65 -98 -19 -11 -18 -13 17 -47
l37 -35 94 0 94 0 9 -72 c9 -68 10 -72 39 -80 38 -11 168 0 189 15 9 7 19 30
22 52 3 22 7 50 10 63 l4 22 490 0 c270 0 490 -3 490 -7 -1 -5 -7 -19 -15 -33
-19 -33 -19 -132 1 -178 75 -182 343 -182 418 0 20 46 20 145 1 178 -8 14 -14
28 -15 33 0 4 167 7 370 7 l370 0 0 85 0 85 446 0 445 0 -3 -32 c-3 -28 -8
-33 -41 -40 -111 -23 -187 -113 -187 -223 0 -64 15 -106 55 -153 105 -125 316
-92 379 60 33 79 11 203 -46 254 -17 16 -15 20 33 80 30 38 73 113 110 195 33
72 58 133 57 134 -2 1 -14 9 -28 19 l-25 16 -56 -112 -55 -113 -982 -3 -982
-2 0 140 0 140 253 -5 c138 -3 336 -7 440 -10 l187 -5 0 45 0 45 -436 0 c-240
-1 -439 2 -442 5 -9 9 14 26 148 113 l125 80 225 16 c124 9 279 21 345 26 66
6 307 24 535 40 825 59 931 68 936 73 3 2 16 215 29 473 13 258 27 508 30 555
l6 87 -53 6 c-58 7 -463 30 -788 46 -188 8 -455 23 -955 50 -104 6 -275 15
-380 20 -104 5 -231 12 -282 16 l-92 6 -12 56 c-7 32 -15 62 -18 68 -5 9 -76
67 -330 270 -2 2 -5 18 -7 36 -9 71 -85 97 -132 43 -41 -48 -17 -105 53 -121
16 -3 100 -63 187 -133 l158 -126 56 -175 c31 -96 102 -317 159 -490 57 -173
139 -425 183 -560 l80 -245 -27 -23 c-14 -12 -36 -28 -48 -35 -67 -37 -201
-139 -206 -157 -5 -20 -11 -20 -561 -20 l-556 0 0 23 c0 72 23 436 35 572 25
266 14 955 -21 1335 l-6 65 34 10 33 10 -3 214 -2 213 71 -63 c149 -133 253
-219 264 -219 18 0 104 79 120 110 14 27 13 30 -47 101 -72 86 -154 180 -329
372 l-127 138 -6 80 c-12 136 -160 703 -206 788 -5 11 -24 22 -42 26 -101 19
-133 31 -198 71 -40 24 -74 44 -76 44 -3 0 -11 -15 -19 -32z m1804 -2326 l84
-7 22 -98 22 -99 -21 -8 c-48 -18 -98 -103 -112 -188 -7 -42 -8 -43 -42 -40
l-35 3 -73 215 c-40 118 -73 220 -74 225 0 11 62 10 229 -3z m371 -22 c11 0
20 -18 29 -62 14 -70 69 -313 77 -340 4 -14 -1 -18 -20 -18 -21 0 -34 12 -60
53 -44 68 -105 130 -159 161 -41 24 -44 30 -60 98 -10 40 -20 84 -24 97 l-6
24 104 -6 c57 -4 111 -7 119 -7z m376 -23 c2 -1 18 -91 36 -200 l34 -198 -135
3 -135 3 -41 175 c-23 96 -44 188 -49 204 l-7 29 148 -7 c81 -4 148 -8 149 -9z
m365 -28 c11 -5 23 -53 43 -171 15 -90 29 -171 32 -180 5 -17 -7 -18 -150 -18
-100 0 -156 4 -156 10 0 6 -13 87 -30 180 -16 93 -30 177 -30 185 0 14 16 15
138 9 75 -4 144 -10 153 -15z m239 -10 c74 -6 136 -12 138 -14 4 -3 32 -338
29 -341 -1 -1 -60 -4 -131 -5 l-130 -4 -28 160 c-15 88 -29 172 -32 188 -4 18
-1 27 7 27 7 0 74 -5 147 -11z m393 -24 l127 -7 0 -164 0 -164 -139 0 -139 0
-6 28 c-2 15 -7 68 -11 117 -3 50 -8 116 -11 149 l-6 58 28 -5 c16 -3 86 -9
157 -12z m377 -22 l93 -6 -7 -151 c-3 -82 -9 -153 -14 -158 -4 -4 -62 -4 -130
-1 l-122 6 0 159 0 158 43 0 c24 0 86 -3 137 -7z m66 -530 c-4 -87 -11 -162
-15 -166 -5 -5 -32 -7 -62 -5 l-54 3 -2 55 c-2 30 -5 78 -8 106 l-6 51 -50 -5
-49 -5 0 56 c0 66 -5 64 149 66 l104 1 -7 -157z m-2168 66 c12 -45 40 -119 61
-165 22 -45 36 -85 33 -88 -3 -3 -18 -6 -33 -6 -26 0 -29 5 -80 158 -28 86
-54 163 -57 170 -3 8 6 12 24 12 28 0 30 -4 52 -81z m812 73 c0 -4 11 -71 25
-148 14 -76 25 -147 25 -157 0 -16 -11 -17 -121 -15 l-122 3 -33 144 c-19 79
-36 153 -40 163 -5 17 3 18 130 18 75 0 136 -4 136 -8z m375 -14 c3 -13 9 -44
14 -70 l8 -48 -38 0 c-38 0 -39 -1 -80 -82 -22 -46 -45 -89 -51 -95 -11 -14
-108 -18 -108 -5 0 4 -11 70 -25 146 -14 77 -25 148 -25 158 0 17 12 18 150
18 147 0 150 0 155 -22z m323 -40 l-3 -63 -117 -3 -116 -3 -6 28 c-3 15 -8 45
-12 66 l-6 37 131 0 132 0 -3 -62z m342 8 l0 -53 -67 -6 c-38 -4 -98 -7 -135
-7 l-68 0 0 38 c0 20 -3 47 -6 60 l-6 22 141 0 141 0 0 -54z m-3546 -741 c9
-88 16 -175 16 -192 l0 -33 -240 0 c-132 0 -240 2 -240 5 0 9 80 166 120 235
43 75 129 235 177 330 18 36 56 123 85 194 l53 129 7 -254 c3 -140 13 -326 22
-414z m3841 308 c-4 -60 -9 -111 -12 -115 -2 -5 -22 -8 -44 -8 l-39 0 0 54 c0
29 -3 81 -6 115 l-7 61 58 0 57 0 -7 -107z m-1976 30 c19 -32 65 -105 103
-162 38 -57 67 -106 64 -108 -3 -3 -43 -8 -89 -10 l-84 -6 -56 166 c-30 91
-52 168 -49 171 3 3 22 6 41 6 34 0 39 -4 70 -57z m721 -10 l11 -66 -37 -38
c-35 -35 -36 -41 -31 -83 l7 -46 -70 0 c-39 0 -70 3 -70 8 0 4 -14 65 -30 136
-17 72 -30 136 -30 143 0 10 27 13 119 13 l119 0 12 -67z m-1297 -623 l217 0
0 -175 0 -175 -107 5 c-60 2 -261 7 -448 10 -187 3 -393 8 -458 11 l-118 6 6
152 c4 83 8 157 11 165 3 11 63 12 342 7 185 -3 435 -6 555 -6z m-2199 -21 c5
-4 -50 -228 -57 -235 -6 -6 -330 22 -437 37 -100 14 -221 39 -242 51 -11 5
-18 20 -18 37 0 24 6 31 31 40 49 17 200 39 354 51 77 6 181 14 230 18 97 8
132 8 139 1z m2426 -591 l0 -61 41 52 c22 28 45 51 49 51 18 0 40 -46 40 -85
0 -58 -30 -102 -78 -115 -63 -16 -118 8 -142 63 -28 61 -1 135 55 157 31 12
35 4 35 -62z m1840 17 l5 -49 32 39 33 40 20 -24 c14 -16 20 -38 20 -71 0 -40
-5 -53 -29 -78 -86 -86 -214 -20 -198 101 7 49 55 100 90 95 18 -2 23 -11 27
-53z"/>
<path d="M15895 9131 c-187 -74 -241 -105 -264 -149 -27 -54 -91 -240 -91
-266 0 -18 12 -27 55 -45 35 -15 69 -39 94 -67 24 -28 41 -40 44 -32 6 18 23
-46 49 -179 14 -75 25 -113 34 -113 7 0 28 9 46 20 31 18 51 19 311 17 216 -1
280 2 286 11 4 7 19 72 32 144 23 124 26 132 54 149 40 25 106 33 166 22 27
-6 52 -6 55 -2 11 19 -38 385 -57 421 -5 10 -70 36 -171 69 l-161 52 -46 -49
c-25 -27 -65 -71 -88 -98 -37 -44 -44 -48 -59 -36 -14 12 -19 10 -43 -18 -14
-18 -29 -32 -33 -32 -3 0 -9 14 -13 30 -8 36 -17 38 -37 8 -15 -23 -15 -22
-37 19 -26 52 -28 128 -4 155 23 26 13 23 -122 -31z m523 -358 l3 -33 -115 0
-116 0 0 35 0 36 113 -3 112 -3 3 -32z"/>
<path d="M13750 8731 c-6 -13 -10 -168 -10 -436 0 -268 4 -423 10 -436 10 -17
22 -19 140 -19 104 0 130 -3 130 -14 0 -8 -9 -58 -20 -111 -11 -53 -20 -99
-20 -101 0 -2 142 -4 315 -4 l315 1 0 24 c0 25 -1 25 -91 25 l-91 0 6 28 c3
15 8 55 11 90 l7 62 287 0 c210 0 290 3 299 12 17 17 17 869 0 886 -9 9 -166
12 -645 12 -615 0 -633 -1 -643 -19z"/>
<path d="M12637 8533 c-4 -3 -7 -35 -7 -70 l0 -63 220 0 220 0 0 70 0 70 -213
0 c-118 0 -217 -3 -220 -7z"/>
<path d="M15937 8166 c-18 -14 -18 -16 -1 -48 12 -22 18 -58 19 -108 1 -64 7
-85 35 -140 35 -69 40 -111 26 -207 l-8 -53 306 0 306 0 0 23 c0 12 -7 56 -15
98 -7 41 -11 85 -8 97 8 31 -28 253 -41 257 -34 10 -547 95 -572 95 -16 0 -37
-7 -47 -14z"/>
<path d="M12640 7830 l0 -220 500 0 500 0 0 175 0 175 -170 0 -170 0 0 45 0
45 -330 0 -330 0 0 -220z"/>
<path d="M3993 7753 c-8 -2 -13 -22 -13 -44 0 -21 -4 -39 -8 -39 -5 0 -21 14
-37 30 -16 17 -31 30 -35 30 -3 0 -14 -16 -24 -35 -11 -19 -24 -35 -30 -35 -5
0 -24 13 -41 30 l-30 29 -125 -10 c-69 -6 -164 -9 -212 -6 l-86 4 -26 -71
c-14 -39 -38 -116 -52 -171 -28 -110 -24 -8 -54 -1155 -11 -406 -19 -543 -46
-785 -36 -325 -44 -407 -50 -530 -3 -83 -2 -135 5 -145 17 -24 135 -20 160 5
13 14 49 142 119 430 170 690 282 1179 282 1227 0 4 -40 8 -88 8 -55 0 -94 5
-104 13 -11 8 -35 108 -79 338 l-62 326 -31 9 c-24 7 -32 15 -34 38 -4 36 10
46 67 46 23 0 81 12 128 27 l85 26 -7 36 c-23 126 -13 205 35 263 52 63 125
60 191 -8 l34 -35 -77 -149 c-42 -82 -74 -151 -70 -154 3 -3 20 -6 39 -6 32 0
34 3 94 121 l60 122 26 -38 c14 -21 43 -75 65 -121 l39 -84 119 0 120 0 0 26
0 26 31 -26 c24 -20 41 -26 80 -26 27 0 49 2 49 4 0 2 -49 47 -108 99 -91 79
-110 101 -121 138 -19 63 -68 163 -97 199 -24 28 -51 36 -81 23z"/>
<path d="M10596 7555 c-87 -208 -96 -427 -36 -910 22 -172 33 -309 34 -405 1
-136 -1 -149 -26 -210 -35 -85 -61 -218 -93 -470 -14 -113 -32 -245 -40 -295
-22 -144 -28 -228 -18 -266 7 -24 6 -49 -3 -84 -7 -28 -13 -78 -14 -112 0 -93
9 -97 223 -101 93 -2 185 -1 203 3 43 8 61 38 43 72 -18 34 -36 41 -103 44
-31 1 -59 6 -61 10 -3 4 -20 10 -39 13 -19 4 -53 24 -77 44 l-42 38 21 30 c22
29 49 115 155 499 147 529 202 766 222 972 8 87 18 169 20 183 6 25 4 26 -179
69 -102 24 -189 47 -194 50 -6 4 7 154 31 379 40 356 42 372 62 372 18 0 20 5
17 34 -4 32 -10 38 -84 74 -4 2 -14 -13 -22 -33z"/>
<path d="M4080 7122 c0 -43 9 -120 21 -172 25 -113 23 -242 -4 -284 -28 -42
-22 -56 23 -56 22 0 40 2 40 3 0 15 61 529 66 555 l6 32 -76 0 -76 0 0 -78z"/>
<path d="M4358 7141 c-26 -4 -50 -9 -53 -12 -5 -6 -55 -460 -55 -501 0 -13 8
-18 30 -18 17 0 32 6 34 13 8 27 106 504 106 515 0 7 -3 11 -7 11 -5 -1 -29
-5 -55 -8z"/>
<path d="M11281 6955 c-52 -221 -69 -287 -78 -295 -23 -19 -126 -49 -153 -43
-29 5 -30 4 -30 -28 0 -19 5 -72 12 -119 8 -58 12 -303 12 -760 1 -639 2 -678
20 -735 11 -33 25 -64 30 -68 7 -6 5 -7 -5 -4 -13 4 -19 -6 -28 -50 -6 -31
-11 -69 -11 -85 0 -25 5 -30 26 -27 4 0 10 -5 15 -12 12 -20 385 -19 419 0 15
9 20 16 12 19 -6 2 -10 7 -7 11 6 10 -38 52 -58 55 -8 1 -21 7 -29 13 -8 7
-35 17 -62 23 -65 14 -100 34 -126 70 -19 27 -20 31 -6 52 16 25 35 146 66
418 52 466 74 816 60 976 -5 60 -16 244 -25 409 -9 165 -17 305 -19 310 -2 6
-18 -53 -35 -130z"/>
<path d="M3120 4681 c0 -81 7 -89 96 -116 69 -21 261 -48 290 -41 45 12 29 40
-48 82 -39 21 -85 53 -101 70 -28 29 -31 30 -76 20 -58 -11 -90 -4 -130 30
l-31 26 0 -71z"/>
<path d="M4455 4703 c-34 -21 -49 -23 -101 -19 l-61 5 7 -45 c12 -77 16 -79
224 -82 185 -4 226 2 226 32 0 21 -31 42 -90 61 -30 10 -77 29 -105 44 -27 14
-52 27 -55 27 -3 1 -23 -9 -45 -23z"/>
</g>
</svg>
